<?xml version="1.0" encoding="UTF-8" standalone="no"?>
<!-- Uploaded to: SVG Repo, www.svgrepo.com, Generator: SVG Repo Mixer Tools -->

<svg
   fill="#000000"
   width="800px"
   height="800px"
   viewBox="0 0 24 24"
   role="img"
   version="1.1"
   id="svg1"
   sodipodi:docname="openlayers2.svg"
   inkscape:version="1.3.2 (091e20e, 2023-11-25, custom)"
   xmlns:inkscape="http://www.inkscape.org/namespaces/inkscape"
   xmlns:sodipodi="http://sodipodi.sourceforge.net/DTD/sodipodi-0.dtd"
   xmlns="http://www.w3.org/2000/svg"
   xmlns:svg="http://www.w3.org/2000/svg"
   xmlns:rdf="http://www.w3.org/1999/02/22-rdf-syntax-ns#"
   xmlns:cc="http://creativecommons.org/ns#"
   xmlns:dc="http://purl.org/dc/elements/1.1/">
  <defs
     id="defs1" />
  <sodipodi:namedview
     id="namedview1"
     pagecolor="#ffffff"
     bordercolor="#000000"
     borderopacity="0.25"
     inkscape:showpageshadow="2"
     inkscape:pageopacity="0.0"
     inkscape:pagecheckerboard="0"
     inkscape:deskcolor="#d1d1d1"
     inkscape:zoom="1.47625"
     inkscape:cx="400"
     inkscape:cy="400"
     inkscape:window-width="2560"
     inkscape:window-height="1377"
     inkscape:window-x="-8"
     inkscape:window-y="32"
     inkscape:window-maximized="1"
     inkscape:current-layer="svg1" />
  <title
     id="title1">Openlayers icon</title>
  <path
     d="m 23.7,13.08 c -0.210368,0.635638 -0.598742,1.197548 -1.119,1.619 l -7.426,6.196 c -1.856847,1.447663 -4.460153,1.447663 -6.317,0 L 1.412,14.7 c -0.51752707,-0.424596 -0.90556182,-0.985861 -1.12,-1.62 -0.43525096,1.327782 0.0134748,2.785741 1.12,3.639 l 7.426,6.196 c 1.856847,1.447663 4.460153,1.447663 6.317,0 l 7.426,-6.196 c 1.106525,-0.853259 1.555251,-2.311218 1.12,-3.639"
     id="path1"
     inkscape:label="path1"
     style="fill:#313131;fill-opacity:1"
     sodipodi:nodetypes="ccccccccccc" />
  <path
     d="m 8.838,1.086 c 1.856847,-1.44766334 4.460153,-1.44766334 6.317,0 l 7.426,6.196 c 1.742304,1.3196658 1.742304,3.938334 0,5.258 l -7.426,6.187 c -1.856847,1.447663 -4.460153,1.447663 -6.317,0 L 1.412,12.53 c -1.73352553,-1.319868 -1.73352553,-3.9281318 0,-5.248 z"
     id="path2"
     inkscape:label="path1"
     style="fill:#00a5f7;fill-opacity:1"
     sodipodi:nodetypes="ccccccccc" />
  <metadata
     id="metadata2">
    <rdf:RDF>
      <cc:Work
         rdf:about="">
        <dc:title>Openlayers icon</dc:title>
      </cc:Work>
    </rdf:RDF>
  </metadata>
</svg>
