<?xml version="1.0" encoding="UTF-8" standalone="no"?>
<!-- Created with Inkscape (http://www.inkscape.org/) -->

<svg
   width="256"
   height="256"
   viewBox="0 0 256 256"
   version="1.1"
   id="svg1"
   inkscape:version="1.3.2 (091e20e, 2023-11-25, custom)"
   sodipodi:docname="ranking.svg"
   xmlns:inkscape="http://www.inkscape.org/namespaces/inkscape"
   xmlns:sodipodi="http://sodipodi.sourceforge.net/DTD/sodipodi-0.dtd"
   xmlns="http://www.w3.org/2000/svg"
   xmlns:svg="http://www.w3.org/2000/svg">
  <sodipodi:namedview
     id="namedview1"
     pagecolor="#ffffff"
     bordercolor="#000000"
     borderopacity="0.25"
     inkscape:showpageshadow="2"
     inkscape:pageopacity="0.0"
     inkscape:pagecheckerboard="0"
     inkscape:deskcolor="#d1d1d1"
     inkscape:document-units="px"
     showgrid="true"
     inkscape:zoom="4.6132813"
     inkscape:cx="107.19052"
     inkscape:cy="123.01439"
     inkscape:window-width="2560"
     inkscape:window-height="1377"
     inkscape:window-x="-8"
     inkscape:window-y="32"
     inkscape:window-maximized="1"
     inkscape:current-layer="layer1">
    <inkscape:grid
       id="grid1"
       units="px"
       originx="0"
       originy="0"
       spacingx="1"
       spacingy="1"
       empcolor="#0099e5"
       empopacity="0.30196078"
       color="#0099e5"
       opacity="0.14901961"
       empspacing="8"
       dotted="false"
       gridanglex="30"
       gridanglez="30"
       visible="true" />
  </sodipodi:namedview>
  <defs
     id="defs1" />
  <g
     inkscape:label="Layer 1"
     inkscape:groupmode="layer"
     id="layer1">
    <path
       id="rect1"
       style="fill:#000000;stroke-width:0.850394"
       d="m 0,16 h 216 c 8,0 8,0 8,16 0,16 0,16 -8,16 H 0 Z"
       sodipodi:nodetypes="cccccc" />
    <path
       id="rect2"
       style="fill:#000000;stroke-width:0.850394"
       d="m 0,80 h 184 c 8,0 8,0 8,16 0,16 0,16 -8,16 H 0 Z"
       sodipodi:nodetypes="cccccc" />
    <path
       id="rect3"
       style="fill:#000000;stroke-width:0.850394"
       d="m 0,144 h 152 c 8,0 8,0 8,16 0,16 0,16 -8,16 H 0 Z"
       sodipodi:nodetypes="cccccc" />
    <path
       id="rect4"
       style="fill:#000000;stroke-width:0.850394"
       d="m 0,208 h 120 c 8,0 8,0 8,16 0,16 0,16 -8,16 H 0 Z"
       sodipodi:nodetypes="cccccc" />
  </g>
</svg>
